<?xml version="1.0" encoding="utf-8" standalone="no"?>
<!DOCTYPE svg PUBLIC "-//W3C//DTD SVG 1.1//EN"
  "http://www.w3.org/Graphics/SVG/1.1/DTD/svg11.dtd">
<svg xmlns:xlink="http://www.w3.org/1999/xlink" width="619.2pt" height="316.8pt" viewBox="0 0 619.2 316.8" xmlns="http://www.w3.org/2000/svg" version="1.1">
 <metadata>
  <rdf:RDF xmlns:dc="http://purl.org/dc/elements/1.1/" xmlns:cc="http://creativecommons.org/ns#" xmlns:rdf="http://www.w3.org/1999/02/22-rdf-syntax-ns#">
   <cc:Work>
    <dc:type rdf:resource="http://purl.org/dc/dcmitype/StillImage"/>
    <dc:date>2026-09-28T21:10:42.179940</dc:date>
    <dc:format>image/svg+xml</dc:format>
    <dc:creator>
     <cc:Agent>
      <dc:title>Matplotlib v3.11.1, https://matplotlib.org/</dc:title>
     </cc:Agent>
    </dc:creator>
   </cc:Work>
  </rdf:RDF>
 </metadata>
 <defs>
  <style type="text/css">*{stroke-linejoin: round; stroke-linecap: butt}</style>
 </defs>
 <g id="figure_1">
  <g id="patch_1">
   <path d="M 0 316.8 
L 619.2 316.8 
L 619.2 0 
L 0 0 
z
" style="fill: #ffffff"/>
  </g>
  <g id="axes_1">
   <g id="patch_2">
    <path d="M 58.48 265.76 
L 552.8 265.76 
L 552.8 18.598594 
L 58.48 18.598594 
z
" style="fill: #ffffff"/>
   </g>
   <g id="matplotlib.axis_1">
    <g id="xtick_1">
     <g id="line2d_1">
      <path d="M 58.48 265.76 
L 58.48 18.598594 
" clip-path="url(#p86c64433be)" style="fill: none; stroke: #b0b0b0; stroke-opacity: 0.22; stroke-width: 0.8; stroke-linecap: square"/>
     </g>
     <g id="line2d_2">
      <defs>
       <path id="m1f54ecd782" d="M 0 0 
L 0 3.5 
" style="stroke: #1a1a1a; stroke-width: 0.8"/>
      </defs>
      <g>
       <use xlink:href="#m1f54ecd782" x="58.48" y="265.76" style="fill: #1a1a1a; stroke: #1a1a1a; stroke-width: 0.8"/>
      </g>
     </g>
     <g id="text_1">
      <!-- 0 -->
      <g style="fill: #1a1a1a" transform="translate(54.6625 281.877187) scale(0.12 -0.12)">
       <defs>
        <path id="DejaVuSans-13" d="M 2034 4250 
Q 1547 4250 1301 3770 
Q 1056 3291 1056 2328 
Q 1056 1369 1301 889 
Q 1547 409 2034 409 
Q 2525 409 2770 889 
Q 3016 1369 3016 2328 
Q 3016 3291 2770 3770 
Q 2525 4250 2034 4250 
z
M 2034 4750 
Q 2819 4750 3233 4129 
Q 3647 3509 3647 2328 
Q 3647 1150 3233 529 
Q 2819 -91 2034 -91 
Q 1250 -91 836 529 
Q 422 1150 422 2328 
Q 422 3509 836 4129 
Q 1250 4750 2034 4750 
z
" transform="scale(0.015625)"/>
       </defs>
       <use xlink:href="#DejaVuSans-13"/>
      </g>
     </g>
    </g>
    <g id="xtick_2">
     <g id="line2d_3">
      <path d="M 128.895954 265.76 
L 128.895954 18.598594 
" clip-path="url(#p86c64433be)" style="fill: none; stroke: #b0b0b0; stroke-opacity: 0.22; stroke-width: 0.8; stroke-linecap: square"/>
     </g>
     <g id="line2d_4">
      <g>
       <use xlink:href="#m1f54ecd782" x="128.895954" y="265.76" style="fill: #1a1a1a; stroke: #1a1a1a; stroke-width: 0.8"/>
      </g>
     </g>
     <g id="text_2">
      <!-- 200 -->
      <g style="fill: #1a1a1a" transform="translate(117.443454 281.877187) scale(0.12 -0.12)">
       <defs>
        <path id="DejaVuSans-15" d="M 1228 531 
L 3431 531 
L 3431 0 
L 469 0 
L 469 531 
Q 828 903 1448 1529 
Q 2069 2156 2228 2338 
Q 2531 2678 2651 2914 
Q 2772 3150 2772 3378 
Q 2772 3750 2511 3984 
Q 2250 4219 1831 4219 
Q 1534 4219 1204 4116 
Q 875 4013 500 3803 
L 500 4441 
Q 881 4594 1212 4672 
Q 1544 4750 1819 4750 
Q 2544 4750 2975 4387 
Q 3406 4025 3406 3419 
Q 3406 3131 3298 2873 
Q 3191 2616 2906 2266 
Q 2828 2175 2409 1742 
Q 1991 1309 1228 531 
z
" transform="scale(0.015625)"/>
       </defs>
       <use xlink:href="#DejaVuSans-15"/>
       <use xlink:href="#DejaVuSans-13" transform="translate(63.625 0)"/>
       <use xlink:href="#DejaVuSans-13" transform="translate(127.25 0)"/>
      </g>
     </g>
    </g>
    <g id="xtick_3">
     <g id="line2d_5">
      <path d="M 199.311909 265.76 
L 199.311909 18.598594 
" clip-path="url(#p86c64433be)" style="fill: none; stroke: #b0b0b0; stroke-opacity: 0.22; stroke-width: 0.8; stroke-linecap: square"/>
     </g>
     <g id="line2d_6">
      <g>
       <use xlink:href="#m1f54ecd782" x="199.311909" y="265.76" style="fill: #1a1a1a; stroke: #1a1a1a; stroke-width: 0.8"/>
      </g>
     </g>
     <g id="text_3">
      <!-- 400 -->
      <g style="fill: #1a1a1a" transform="translate(187.859409 281.877187) scale(0.12 -0.12)">
       <defs>
        <path id="DejaVuSans-17" d="M 2419 4116 
L 825 1625 
L 2419 1625 
L 2419 4116 
z
M 2253 4666 
L 3047 4666 
L 3047 1625 
L 3713 1625 
L 3713 1100 
L 3047 1100 
L 3047 0 
L 2419 0 
L 2419 1100 
L 313 1100 
L 313 1709 
L 2253 4666 
z
" transform="scale(0.015625)"/>
       </defs>
       <use xlink:href="#DejaVuSans-17"/>
       <use xlink:href="#DejaVuSans-13" transform="translate(63.625 0)"/>
       <use xlink:href="#DejaVuSans-13" transform="translate(127.25 0)"/>
      </g>
     </g>
    </g>
    <g id="xtick_4">
     <g id="line2d_7">
      <path d="M 269.727863 265.76 
L 269.727863 18.598594 
" clip-path="url(#p86c64433be)" style="fill: none; stroke: #b0b0b0; stroke-opacity: 0.22; stroke-width: 0.8; stroke-linecap: square"/>
     </g>
     <g id="line2d_8">
      <g>
       <use xlink:href="#m1f54ecd782" x="269.727863" y="265.76" style="fill: #1a1a1a; stroke: #1a1a1a; stroke-width: 0.8"/>
      </g>
     </g>
     <g id="text_4">
      <!-- 600 -->
      <g style="fill: #1a1a1a" transform="translate(258.275363 281.877187) scale(0.12 -0.12)">
       <defs>
        <path id="DejaVuSans-19" d="M 2113 2584 
Q 1688 2584 1439 2293 
Q 1191 2003 1191 1497 
Q 1191 994 1439 701 
Q 1688 409 2113 409 
Q 2538 409 2786 701 
Q 3034 994 3034 1497 
Q 3034 2003 2786 2293 
Q 2538 2584 2113 2584 
z
M 3366 4563 
L 3366 3988 
Q 3128 4100 2886 4159 
Q 2644 4219 2406 4219 
Q 1781 4219 1451 3797 
Q 1122 3375 1075 2522 
Q 1259 2794 1537 2939 
Q 1816 3084 2150 3084 
Q 2853 3084 3261 2657 
Q 3669 2231 3669 1497 
Q 3669 778 3244 343 
Q 2819 -91 2113 -91 
Q 1303 -91 875 529 
Q 447 1150 447 2328 
Q 447 3434 972 4092 
Q 1497 4750 2381 4750 
Q 2619 4750 2861 4703 
Q 3103 4656 3366 4563 
z
" transform="scale(0.015625)"/>
       </defs>
       <use xlink:href="#DejaVuSans-19"/>
       <use xlink:href="#DejaVuSans-13" transform="translate(63.625 0)"/>
       <use xlink:href="#DejaVuSans-13" transform="translate(127.25 0)"/>
      </g>
     </g>
    </g>
    <g id="xtick_5">
     <g id="line2d_9">
      <path d="M 340.143818 265.76 
L 340.143818 18.598594 
" clip-path="url(#p86c64433be)" style="fill: none; stroke: #b0b0b0; stroke-opacity: 0.22; stroke-width: 0.8; stroke-linecap: square"/>
     </g>
     <g id="line2d_10">
      <g>
       <use xlink:href="#m1f54ecd782" x="340.143818" y="265.76" style="fill: #1a1a1a; stroke: #1a1a1a; stroke-width: 0.8"/>
      </g>
     </g>
     <g id="text_5">
      <!-- 800 -->
      <g style="fill: #1a1a1a" transform="translate(328.691318 281.877187) scale(0.12 -0.12)">
       <defs>
        <path id="DejaVuSans-1b" d="M 2034 2216 
Q 1584 2216 1326 1975 
Q 1069 1734 1069 1313 
Q 1069 891 1326 650 
Q 1584 409 2034 409 
Q 2484 409 2743 651 
Q 3003 894 3003 1313 
Q 3003 1734 2745 1975 
Q 2488 2216 2034 2216 
z
M 1403 2484 
Q 997 2584 770 2862 
Q 544 3141 544 3541 
Q 544 4100 942 4425 
Q 1341 4750 2034 4750 
Q 2731 4750 3128 4425 
Q 3525 4100 3525 3541 
Q 3525 3141 3298 2862 
Q 3072 2584 2669 2484 
Q 3125 2378 3379 2068 
Q 3634 1759 3634 1313 
Q 3634 634 3220 271 
Q 2806 -91 2034 -91 
Q 1263 -91 848 271 
Q 434 634 434 1313 
Q 434 1759 690 2068 
Q 947 2378 1403 2484 
z
M 1172 3481 
Q 1172 3119 1398 2916 
Q 1625 2713 2034 2713 
Q 2441 2713 2670 2916 
Q 2900 3119 2900 3481 
Q 2900 3844 2670 4047 
Q 2441 4250 2034 4250 
Q 1625 4250 1398 4047 
Q 1172 3844 1172 3481 
z
" transform="scale(0.015625)"/>
       </defs>
       <use xlink:href="#DejaVuSans-1b"/>
       <use xlink:href="#DejaVuSans-13" transform="translate(63.625 0)"/>
       <use xlink:href="#DejaVuSans-13" transform="translate(127.25 0)"/>
      </g>
     </g>
    </g>
    <g id="xtick_6">
     <g id="line2d_11">
      <path d="M 410.559772 265.76 
L 410.559772 18.598594 
" clip-path="url(#p86c64433be)" style="fill: none; stroke: #b0b0b0; stroke-opacity: 0.22; stroke-width: 0.8; stroke-linecap: square"/>
     </g>
     <g id="line2d_12">
      <g>
       <use xlink:href="#m1f54ecd782" x="410.559772" y="265.76" style="fill: #1a1a1a; stroke: #1a1a1a; stroke-width: 0.8"/>
      </g>
     </g>
     <g id="text_6">
      <!-- 1000 -->
      <g style="fill: #1a1a1a" transform="translate(395.289772 281.877187) scale(0.12 -0.12)">
       <defs>
        <path id="DejaVuSans-14" d="M 794 531 
L 1825 531 
L 1825 4091 
L 703 3866 
L 703 4441 
L 1819 4666 
L 2450 4666 
L 2450 531 
L 3481 531 
L 3481 0 
L 794 0 
L 794 531 
z
" transform="scale(0.015625)"/>
       </defs>
       <use xlink:href="#DejaVuSans-14"/>
       <use xlink:href="#DejaVuSans-13" transform="translate(63.625 0)"/>
       <use xlink:href="#DejaVuSans-13" transform="translate(127.25 0)"/>
       <use xlink:href="#DejaVuSans-13" transform="translate(190.875 0)"/>
      </g>
     </g>
    </g>
    <g id="xtick_7">
     <g id="line2d_13">
      <path d="M 480.975726 265.76 
L 480.975726 18.598594 
" clip-path="url(#p86c64433be)" style="fill: none; stroke: #b0b0b0; stroke-opacity: 0.22; stroke-width: 0.8; stroke-linecap: square"/>
     </g>
     <g id="line2d_14">
      <g>
       <use xlink:href="#m1f54ecd782" x="480.975726" y="265.76" style="fill: #1a1a1a; stroke: #1a1a1a; stroke-width: 0.8"/>
      </g>
     </g>
     <g id="text_7">
      <!-- 1200 -->
      <g style="fill: #1a1a1a" transform="translate(465.705726 281.877187) scale(0.12 -0.12)">
       <use xlink:href="#DejaVuSans-14"/>
       <use xlink:href="#DejaVuSans-15" transform="translate(63.625 0)"/>
       <use xlink:href="#DejaVuSans-13" transform="translate(127.25 0)"/>
       <use xlink:href="#DejaVuSans-13" transform="translate(190.875 0)"/>
      </g>
     </g>
    </g>
    <g id="xtick_8">
     <g id="line2d_15">
      <path d="M 551.391681 265.76 
L 551.391681 18.598594 
" clip-path="url(#p86c64433be)" style="fill: none; stroke: #b0b0b0; stroke-opacity: 0.22; stroke-width: 0.8; stroke-linecap: square"/>
     </g>
     <g id="line2d_16">
      <g>
       <use xlink:href="#m1f54ecd782" x="551.391681" y="265.76" style="fill: #1a1a1a; stroke: #1a1a1a; stroke-width: 0.8"/>
      </g>
     </g>
     <g id="text_8">
      <!-- 1400 -->
      <g style="fill: #1a1a1a" transform="translate(536.121681 281.877187) scale(0.12 -0.12)">
       <use xlink:href="#DejaVuSans-14"/>
       <use xlink:href="#DejaVuSans-17" transform="translate(63.625 0)"/>
       <use xlink:href="#DejaVuSans-13" transform="translate(127.25 0)"/>
       <use xlink:href="#DejaVuSans-13" transform="translate(190.875 0)"/>
      </g>
     </g>
    </g>
    <g id="text_9">
     <!-- Training step -->
     <g style="fill: #1a1a1a" transform="translate(260.654063 299.397812) scale(0.14 -0.14)">
      <defs>
       <path id="DejaVuSans-37" d="M -19 4666 
L 3928 4666 
L 3928 4134 
L 2272 4134 
L 2272 0 
L 1638 0 
L 1638 4134 
L -19 4134 
L -19 4666 
z
" transform="scale(0.015625)"/>
       <path id="DejaVuSans-55" d="M 2631 2963 
Q 2534 3019 2420 3045 
Q 2306 3072 2169 3072 
Q 1681 3072 1420 2755 
Q 1159 2438 1159 1844 
L 1159 0 
L 581 0 
L 581 3500 
L 1159 3500 
L 1159 2956 
Q 1341 3275 1631 3429 
Q 1922 3584 2338 3584 
Q 2397 3584 2469 3576 
Q 2541 3569 2628 3553 
L 2631 2963 
z
" transform="scale(0.015625)"/>
       <path id="DejaVuSans-44" d="M 2194 1759 
Q 1497 1759 1228 1600 
Q 959 1441 959 1056 
Q 959 750 1161 570 
Q 1363 391 1709 391 
Q 2188 391 2477 730 
Q 2766 1069 2766 1631 
L 2766 1759 
L 2194 1759 
z
M 3341 1997 
L 3341 0 
L 2766 0 
L 2766 531 
Q 2569 213 2275 61 
Q 1981 -91 1556 -91 
Q 1019 -91 701 211 
Q 384 513 384 1019 
Q 384 1609 779 1909 
Q 1175 2209 1959 2209 
L 2766 2209 
L 2766 2266 
Q 2766 2663 2505 2880 
Q 2244 3097 1772 3097 
Q 1472 3097 1187 3025 
Q 903 2953 641 2809 
L 641 3341 
Q 956 3463 1253 3523 
Q 1550 3584 1831 3584 
Q 2591 3584 2966 3190 
Q 3341 2797 3341 1997 
z
" transform="scale(0.015625)"/>
       <path id="DejaVuSans-4c" d="M 603 3500 
L 1178 3500 
L 1178 0 
L 603 0 
L 603 3500 
z
M 603 4863 
L 1178 4863 
L 1178 4134 
L 603 4134 
L 603 4863 
z
" transform="scale(0.015625)"/>
       <path id="DejaVuSans-51" d="M 3513 2113 
L 3513 0 
L 2938 0 
L 2938 2094 
Q 2938 2591 2744 2837 
Q 2550 3084 2163 3084 
Q 1697 3084 1428 2787 
Q 1159 2491 1159 1978 
L 1159 0 
L 581 0 
L 581 3500 
L 1159 3500 
L 1159 2956 
Q 1366 3272 1645 3428 
Q 1925 3584 2291 3584 
Q 2894 3584 3203 3211 
Q 3513 2838 3513 2113 
z
" transform="scale(0.015625)"/>
       <path id="DejaVuSans-4a" d="M 2906 1791 
Q 2906 2416 2648 2759 
Q 2391 3103 1925 3103 
Q 1463 3103 1205 2759 
Q 947 2416 947 1791 
Q 947 1169 1205 825 
Q 1463 481 1925 481 
Q 2391 481 2648 825 
Q 2906 1169 2906 1791 
z
M 3481 434 
Q 3481 -459 3084 -895 
Q 2688 -1331 1869 -1331 
Q 1566 -1331 1297 -1286 
Q 1028 -1241 775 -1147 
L 775 -588 
Q 1028 -725 1275 -790 
Q 1522 -856 1778 -856 
Q 2344 -856 2625 -561 
Q 2906 -266 2906 331 
L 2906 616 
Q 2728 306 2450 153 
Q 2172 0 1784 0 
Q 1141 0 747 490 
Q 353 981 353 1791 
Q 353 2603 747 3093 
Q 1141 3584 1784 3584 
Q 2172 3584 2450 3431 
Q 2728 3278 2906 2969 
L 2906 3500 
L 3481 3500 
L 3481 434 
z
" transform="scale(0.015625)"/>
       <path id="DejaVuSans-3" transform="scale(0.015625)"/>
       <path id="DejaVuSans-56" d="M 2834 3397 
L 2834 2853 
Q 2591 2978 2328 3040 
Q 2066 3103 1784 3103 
Q 1356 3103 1142 2972 
Q 928 2841 928 2578 
Q 928 2378 1081 2264 
Q 1234 2150 1697 2047 
L 1894 2003 
Q 2506 1872 2764 1633 
Q 3022 1394 3022 966 
Q 3022 478 2636 193 
Q 2250 -91 1575 -91 
Q 1294 -91 989 -36 
Q 684 19 347 128 
L 347 722 
Q 666 556 975 473 
Q 1284 391 1588 391 
Q 1994 391 2212 530 
Q 2431 669 2431 922 
Q 2431 1156 2273 1281 
Q 2116 1406 1581 1522 
L 1381 1569 
Q 847 1681 609 1914 
Q 372 2147 372 2553 
Q 372 3047 722 3315 
Q 1072 3584 1716 3584 
Q 2034 3584 2315 3537 
Q 2597 3491 2834 3397 
z
" transform="scale(0.015625)"/>
       <path id="DejaVuSans-57" d="M 1172 4494 
L 1172 3500 
L 2356 3500 
L 2356 3053 
L 1172 3053 
L 1172 1153 
Q 1172 725 1289 603 
Q 1406 481 1766 481 
L 2356 481 
L 2356 0 
L 1766 0 
Q 1100 0 847 248 
Q 594 497 594 1153 
L 594 3053 
L 172 3053 
L 172 3500 
L 594 3500 
L 594 4494 
L 1172 4494 
z
" transform="scale(0.015625)"/>
       <path id="DejaVuSans-48" d="M 3597 1894 
L 3597 1613 
L 953 1613 
Q 991 1019 1311 708 
Q 1631 397 2203 397 
Q 2534 397 2845 478 
Q 3156 559 3463 722 
L 3463 178 
Q 3153 47 2828 -22 
Q 2503 -91 2169 -91 
Q 1331 -91 842 396 
Q 353 884 353 1716 
Q 353 2575 817 3079 
Q 1281 3584 2069 3584 
Q 2775 3584 3186 3129 
Q 3597 2675 3597 1894 
z
M 3022 2063 
Q 3016 2534 2758 2815 
Q 2500 3097 2075 3097 
Q 1594 3097 1305 2825 
Q 1016 2553 972 2059 
L 3022 2063 
z
" transform="scale(0.015625)"/>
       <path id="DejaVuSans-53" d="M 1159 525 
L 1159 -1331 
L 581 -1331 
L 581 3500 
L 1159 3500 
L 1159 2969 
Q 1341 3281 1617 3432 
Q 1894 3584 2278 3584 
Q 2916 3584 3314 3078 
Q 3713 2572 3713 1747 
Q 3713 922 3314 415 
Q 2916 -91 2278 -91 
Q 1894 -91 1617 61 
Q 1341 213 1159 525 
z
M 3116 1747 
Q 3116 2381 2855 2742 
Q 2594 3103 2138 3103 
Q 1681 3103 1420 2742 
Q 1159 2381 1159 1747 
Q 1159 1113 1420 752 
Q 1681 391 2138 391 
Q 2594 391 2855 752 
Q 3116 1113 3116 1747 
z
" transform="scale(0.015625)"/>
      </defs>
      <use xlink:href="#DejaVuSans-37"/>
      <use xlink:href="#DejaVuSans-55" transform="translate(46.375 0)"/>
      <use xlink:href="#DejaVuSans-44" transform="translate(87.484375 0)"/>
      <use xlink:href="#DejaVuSans-4c" transform="translate(148.765625 0)"/>
      <use xlink:href="#DejaVuSans-51" transform="translate(176.546875 0)"/>
      <use xlink:href="#DejaVuSans-4c" transform="translate(239.921875 0)"/>
      <use xlink:href="#DejaVuSans-51" transform="translate(267.703125 0)"/>
      <use xlink:href="#DejaVuSans-4a" transform="translate(331.078125 0)"/>
      <use xlink:href="#DejaVuSans-3" transform="translate(394.5625 0)"/>
      <use xlink:href="#DejaVuSans-56" transform="translate(426.34375 0)"/>
      <use xlink:href="#DejaVuSans-57" transform="translate(478.4375 0)"/>
      <use xlink:href="#DejaVuSans-48" transform="translate(517.640625 0)"/>
      <use xlink:href="#DejaVuSans-53" transform="translate(579.171875 0)"/>
     </g>
    </g>
   </g>
   <g id="matplotlib.axis_2">
    <g id="ytick_1">
     <g id="line2d_17">
      <path d="M 58.48 265.76 
L 552.8 265.76 
" clip-path="url(#p86c64433be)" style="fill: none; stroke: #b0b0b0; stroke-opacity: 0.22; stroke-width: 0.8; stroke-linecap: square"/>
     </g>
     <g id="line2d_18">
      <defs>
       <path id="m19a1f8bd8a" d="M 0 0 
L -3.5 0 
" style="stroke: #1a1a1a; stroke-width: 0.8"/>
      </defs>
      <g>
       <use xlink:href="#m19a1f8bd8a" x="58.48" y="265.76" style="fill: #1a1a1a; stroke: #1a1a1a; stroke-width: 0.8"/>
      </g>
     </g>
     <g id="text_10">
      <!-- 0.0 -->
      <g style="fill: #1185e1" transform="translate(32.39625 270.318594) scale(0.12 -0.12)">
       <defs>
        <path id="DejaVuSans-11" d="M 684 794 
L 1344 794 
L 1344 0 
L 684 0 
L 684 794 
z
" transform="scale(0.015625)"/>
       </defs>
       <use xlink:href="#DejaVuSans-13"/>
       <use xlink:href="#DejaVuSans-11" transform="translate(63.625 0)"/>
       <use xlink:href="#DejaVuSans-13" transform="translate(95.40625 0)"/>
      </g>
     </g>
    </g>
    <g id="ytick_2">
     <g id="line2d_19">
      <path d="M 58.48 214.968421 
L 552.8 214.968421 
" clip-path="url(#p86c64433be)" style="fill: none; stroke: #b0b0b0; stroke-opacity: 0.22; stroke-width: 0.8; stroke-linecap: square"/>
     </g>
     <g id="line2d_20">
      <g>
       <use xlink:href="#m19a1f8bd8a" x="58.48" y="214.968421" style="fill: #1a1a1a; stroke: #1a1a1a; stroke-width: 0.8"/>
      </g>
     </g>
     <g id="text_11">
      <!-- 0.5 -->
      <g style="fill: #1185e1" transform="translate(32.39625 219.527015) scale(0.12 -0.12)">
       <defs>
        <path id="DejaVuSans-18" d="M 691 4666 
L 3169 4666 
L 3169 4134 
L 1269 4134 
L 1269 2991 
Q 1406 3038 1543 3061 
Q 1681 3084 1819 3084 
Q 2600 3084 3056 2656 
Q 3513 2228 3513 1497 
Q 3513 744 3044 326 
Q 2575 -91 1722 -91 
Q 1428 -91 1123 -41 
Q 819 9 494 109 
L 494 744 
Q 775 591 1075 516 
Q 1375 441 1709 441 
Q 2250 441 2565 725 
Q 2881 1009 2881 1497 
Q 2881 1984 2565 2268 
Q 2250 2553 1709 2553 
Q 1456 2553 1204 2497 
Q 953 2441 691 2322 
L 691 4666 
z
" transform="scale(0.015625)"/>
       </defs>
       <use xlink:href="#DejaVuSans-13"/>
       <use xlink:href="#DejaVuSans-11" transform="translate(63.625 0)"/>
       <use xlink:href="#DejaVuSans-18" transform="translate(95.40625 0)"/>
      </g>
     </g>
    </g>
    <g id="ytick_3">
     <g id="line2d_21">
      <path d="M 58.48 164.176842 
L 552.8 164.176842 
" clip-path="url(#p86c64433be)" style="fill: none; stroke: #b0b0b0; stroke-opacity: 0.22; stroke-width: 0.8; stroke-linecap: square"/>
     </g>
     <g id="line2d_22">
      <g>
       <use xlink:href="#m19a1f8bd8a" x="58.48" y="164.176842" style="fill: #1a1a1a; stroke: #1a1a1a; stroke-width: 0.8"/>
      </g>
     </g>
     <g id="text_12">
      <!-- 1.0 -->
      <g style="fill: #1185e1" transform="translate(32.39625 168.735436) scale(0.12 -0.12)">
       <use xlink:href="#DejaVuSans-14"/>
       <use xlink:href="#DejaVuSans-11" transform="translate(63.625 0)"/>
       <use xlink:href="#DejaVuSans-13" transform="translate(95.40625 0)"/>
      </g>
     </g>
    </g>
    <g id="ytick_4">
     <g id="line2d_23">
      <path d="M 58.48 113.385263 
L 552.8 113.385263 
" clip-path="url(#p86c64433be)" style="fill: none; stroke: #b0b0b0; stroke-opacity: 0.22; stroke-width: 0.8; stroke-linecap: square"/>
     </g>
     <g id="line2d_24">
      <g>
       <use xlink:href="#m19a1f8bd8a" x="58.48" y="113.385263" style="fill: #1a1a1a; stroke: #1a1a1a; stroke-width: 0.8"/>
      </g>
     </g>
     <g id="text_13">
      <!-- 1.5 -->
      <g style="fill: #1185e1" transform="translate(32.39625 117.943857) scale(0.12 -0.12)">
       <use xlink:href="#DejaVuSans-14"/>
       <use xlink:href="#DejaVuSans-11" transform="translate(63.625 0)"/>
       <use xlink:href="#DejaVuSans-18" transform="translate(95.40625 0)"/>
      </g>
     </g>
    </g>
    <g id="ytick_5">
     <g id="line2d_25">
      <path d="M 58.48 62.593684 
L 552.8 62.593684 
" clip-path="url(#p86c64433be)" style="fill: none; stroke: #b0b0b0; stroke-opacity: 0.22; stroke-width: 0.8; stroke-linecap: square"/>
     </g>
     <g id="line2d_26">
      <g>
       <use xlink:href="#m19a1f8bd8a" x="58.48" y="62.593684" style="fill: #1a1a1a; stroke: #1a1a1a; stroke-width: 0.8"/>
      </g>
     </g>
     <g id="text_14">
      <!-- 2.0 -->
      <g style="fill: #1185e1" transform="translate(32.39625 67.152278) scale(0.12 -0.12)">
       <use xlink:href="#DejaVuSans-15"/>
       <use xlink:href="#DejaVuSans-11" transform="translate(63.625 0)"/>
       <use xlink:href="#DejaVuSans-13" transform="translate(95.40625 0)"/>
      </g>
     </g>
    </g>
    <g id="text_15">
     <!-- Loss -->
     <g style="fill: #1185e1" transform="translate(25.032969 157.533359) rotate(-90) scale(0.14 -0.14)">
      <defs>
       <path id="DejaVuSans-2f" d="M 628 4666 
L 1259 4666 
L 1259 531 
L 3531 531 
L 3531 0 
L 628 0 
L 628 4666 
z
" transform="scale(0.015625)"/>
       <path id="DejaVuSans-52" d="M 1959 3097 
Q 1497 3097 1228 2736 
Q 959 2375 959 1747 
Q 959 1119 1226 758 
Q 1494 397 1959 397 
Q 2419 397 2687 759 
Q 2956 1122 2956 1747 
Q 2956 2369 2687 2733 
Q 2419 3097 1959 3097 
z
M 1959 3584 
Q 2709 3584 3137 3096 
Q 3566 2609 3566 1747 
Q 3566 888 3137 398 
Q 2709 -91 1959 -91 
Q 1206 -91 779 398 
Q 353 888 353 1747 
Q 353 2609 779 3096 
Q 1206 3584 1959 3584 
z
" transform="scale(0.015625)"/>
      </defs>
      <use xlink:href="#DejaVuSans-2f"/>
      <use xlink:href="#DejaVuSans-52" transform="translate(53.96875 0)"/>
      <use xlink:href="#DejaVuSans-56" transform="translate(115.15625 0)"/>
      <use xlink:href="#DejaVuSans-56" transform="translate(167.25 0)"/>
     </g>
    </g>
   </g>
   <g id="line2d_27">
    <path d="M 62.000798 30.368185 
L 69.042393 191.922651 
L 72.563191 212.170316 
L 76.083989 213.527202 
L 79.604786 216.921147 
L 83.125584 222.802172 
L 86.646382 219.685331 
L 93.687977 221.943811 
L 97.208775 220.267471 
L 100.729573 221.705468 
L 104.25037 222.494374 
L 107.771168 222.664442 
L 111.291966 223.39663 
L 114.812764 224.56993 
L 118.333561 226.054516 
L 121.854359 223.794244 
L 125.375157 226.047061 
L 128.895954 224.7798 
L 132.416752 226.017075 
L 135.93755 225.183706 
L 139.458348 224.716142 
L 142.979145 225.814609 
L 146.499943 223.759687 
L 150.020741 226.99059 
L 153.541538 225.204299 
L 157.062336 227.774724 
L 160.583134 227.394534 
L 164.103932 226.663288 
L 167.624729 225.100255 
L 171.145527 225.808741 
L 174.666325 228.93393 
L 178.187123 226.835438 
L 181.70792 227.073272 
L 185.228718 226.361166 
L 188.749516 226.954823 
L 195.791111 225.47131 
L 202.832707 227.227055 
L 206.353504 226.666765 
L 213.3951 227.014303 
L 216.915897 228.69531 
L 220.436695 227.939175 
L 223.957493 229.882838 
L 227.478291 230.096639 
L 230.999088 232.276651 
L 234.519886 230.927337 
L 238.040684 229.38656 
L 241.561481 232.280768 
L 245.082279 233.010445 
L 248.603077 231.167513 
L 252.123875 235.92281 
L 255.644672 230.438647 
L 259.16547 231.865668 
L 266.207066 229.304055 
L 269.727863 234.858112 
L 273.248661 232.828466 
L 276.769459 231.521602 
L 280.290256 233.061642 
L 283.811054 232.729845 
L 287.331852 233.185899 
L 290.85265 232.472578 
L 294.373447 231.606376 
L 297.894245 234.085204 
L 301.415043 231.318126 
L 304.93584 230.939706 
L 308.456638 231.928435 
L 311.977436 233.957941 
L 315.498234 232.66554 
L 319.019031 232.4763 
L 322.539829 233.688688 
L 326.060627 233.511402 
L 329.581425 232.11674 
L 333.102222 233.747286 
L 336.62302 232.923062 
L 340.143818 231.869328 
L 343.664615 232.23277 
L 347.185413 233.059637 
L 350.706211 234.051483 
L 354.227009 232.446009 
L 357.747806 235.181716 
L 361.268604 232.987987 
L 364.789402 234.415918 
L 368.310199 231.309697 
L 371.830997 231.010223 
L 375.351795 233.197125 
L 378.872593 232.330362 
L 382.39339 234.161812 
L 385.914188 233.188447 
L 389.434986 237.77643 
L 392.955783 237.405974 
L 396.476581 236.312649 
L 399.997379 237.266265 
L 403.518177 238.732655 
L 407.038974 237.371382 
L 410.559772 239.120137 
L 414.08057 239.970082 
L 417.601368 236.650821 
L 421.122165 235.417457 
L 424.642963 236.904504 
L 428.163761 237.406013 
L 431.684558 238.641934 
L 435.205356 239.448379 
L 442.246952 237.473725 
L 445.767749 237.259154 
L 449.288547 237.413925 
L 452.809345 236.752016 
L 456.330142 238.584127 
L 459.85094 237.695552 
L 466.892536 238.266714 
L 470.413333 239.48039 
L 473.934131 238.973281 
L 477.454929 237.22453 
L 480.975726 239.264525 
L 484.496524 239.002 
L 488.017322 238.090378 
L 491.53812 237.933018 
L 495.058917 238.801275 
L 498.579715 239.398766 
L 502.100513 238.601374 
L 505.621311 237.079641 
L 509.142108 239.083191 
L 512.662906 238.49906 
L 516.183704 238.254834 
L 519.704501 238.685485 
L 523.225299 239.427659 
L 526.746097 238.552083 
L 530.266895 235.441432 
L 533.787692 239.187263 
L 537.30849 238.422834 
L 544.350085 238.638788 
L 547.870883 239.361831 
L 551.391681 240.35338 
L 551.391681 240.35338 
" clip-path="url(#p86c64433be)" style="fill: none; stroke: #1185e1; stroke-width: 2.6; stroke-linecap: square"/>
   </g>
   <g id="line2d_28">
    <path d="M 223.253333 265.76 
L 223.253333 18.598594 
" clip-path="url(#p86c64433be)" style="fill: none; stroke-dasharray: 1.4,2.31; stroke-dashoffset: 0; stroke: #b9b9b9; stroke-width: 1.4"/>
   </g>
   <g id="line2d_29">
    <path d="M 388.026667 265.76 
L 388.026667 18.598594 
" clip-path="url(#p86c64433be)" style="fill: none; stroke-dasharray: 1.4,2.31; stroke-dashoffset: 0; stroke: #b9b9b9; stroke-width: 1.4"/>
   </g>
   <g id="patch_3">
    <path d="M 58.48 265.76 
L 58.48 18.598594 
" style="fill: none; stroke: #c8c8c8; stroke-width: 0.8; stroke-linejoin: miter; stroke-linecap: square"/>
   </g>
   <g id="patch_4">
    <path d="M 552.8 265.76 
L 552.8 18.598594 
" style="fill: none; stroke: #c8c8c8; stroke-width: 0.8; stroke-linejoin: miter; stroke-linecap: square"/>
   </g>
   <g id="patch_5">
    <path d="M 58.48 265.76 
L 552.8 265.76 
" style="fill: none; stroke: #c8c8c8; stroke-width: 0.8; stroke-linejoin: miter; stroke-linecap: square"/>
   </g>
   <g id="patch_6">
    <path d="M 58.48 18.598594 
L 552.8 18.598594 
" style="fill: none; stroke: #c8c8c8; stroke-width: 0.8; stroke-linejoin: miter; stroke-linecap: square"/>
   </g>
   <g id="text_16">
    <!-- end of epoch 1 -->
    <g style="fill: #666666" transform="translate(228.18245 48.142138) scale(0.11 -0.11)">
     <defs>
      <path id="DejaVuSans-47" d="M 2906 2969 
L 2906 4863 
L 3481 4863 
L 3481 0 
L 2906 0 
L 2906 525 
Q 2725 213 2448 61 
Q 2172 -91 1784 -91 
Q 1150 -91 751 415 
Q 353 922 353 1747 
Q 353 2572 751 3078 
Q 1150 3584 1784 3584 
Q 2172 3584 2448 3432 
Q 2725 3281 2906 2969 
z
M 947 1747 
Q 947 1113 1208 752 
Q 1469 391 1925 391 
Q 2381 391 2643 752 
Q 2906 1113 2906 1747 
Q 2906 2381 2643 2742 
Q 2381 3103 1925 3103 
Q 1469 3103 1208 2742 
Q 947 2381 947 1747 
z
" transform="scale(0.015625)"/>
      <path id="DejaVuSans-49" d="M 2375 4863 
L 2375 4384 
L 1825 4384 
Q 1516 4384 1395 4259 
Q 1275 4134 1275 3809 
L 1275 3500 
L 2222 3500 
L 2222 3053 
L 1275 3053 
L 1275 0 
L 697 0 
L 697 3053 
L 147 3053 
L 147 3500 
L 697 3500 
L 697 3744 
Q 697 4328 969 4595 
Q 1241 4863 1831 4863 
L 2375 4863 
z
" transform="scale(0.015625)"/>
      <path id="DejaVuSans-46" d="M 3122 3366 
L 3122 2828 
Q 2878 2963 2633 3030 
Q 2388 3097 2138 3097 
Q 1578 3097 1268 2742 
Q 959 2388 959 1747 
Q 959 1106 1268 751 
Q 1578 397 2138 397 
Q 2388 397 2633 464 
Q 2878 531 3122 666 
L 3122 134 
Q 2881 22 2623 -34 
Q 2366 -91 2075 -91 
Q 1284 -91 818 406 
Q 353 903 353 1747 
Q 353 2603 823 3093 
Q 1294 3584 2113 3584 
Q 2378 3584 2631 3529 
Q 2884 3475 3122 3366 
z
" transform="scale(0.015625)"/>
      <path id="DejaVuSans-4b" d="M 3513 2113 
L 3513 0 
L 2938 0 
L 2938 2094 
Q 2938 2591 2744 2837 
Q 2550 3084 2163 3084 
Q 1697 3084 1428 2787 
Q 1159 2491 1159 1978 
L 1159 0 
L 581 0 
L 581 4863 
L 1159 4863 
L 1159 2956 
Q 1366 3272 1645 3428 
Q 1925 3584 2291 3584 
Q 2894 3584 3203 3211 
Q 3513 2838 3513 2113 
z
" transform="scale(0.015625)"/>
     </defs>
     <use xlink:href="#DejaVuSans-48"/>
     <use xlink:href="#DejaVuSans-51" transform="translate(61.53125 0)"/>
     <use xlink:href="#DejaVuSans-47" transform="translate(124.90625 0)"/>
     <use xlink:href="#DejaVuSans-3" transform="translate(188.390625 0)"/>
     <use xlink:href="#DejaVuSans-52" transform="translate(220.171875 0)"/>
     <use xlink:href="#DejaVuSans-49" transform="translate(281.359375 0)"/>
     <use xlink:href="#DejaVuSans-3" transform="translate(316.5625 0)"/>
     <use xlink:href="#DejaVuSans-48" transform="translate(348.34375 0)"/>
     <use xlink:href="#DejaVuSans-53" transform="translate(409.875 0)"/>
     <use xlink:href="#DejaVuSans-52" transform="translate(473.359375 0)"/>
     <use xlink:href="#DejaVuSans-46" transform="translate(534.546875 0)"/>
     <use xlink:href="#DejaVuSans-4b" transform="translate(589.53125 0)"/>
     <use xlink:href="#DejaVuSans-3" transform="translate(652.90625 0)"/>
     <use xlink:href="#DejaVuSans-14" transform="translate(684.6875 0)"/>
    </g>
   </g>
   <g id="text_17">
    <!-- end of epoch 2 -->
    <g style="fill: #666666" transform="translate(392.955783 48.142138) scale(0.11 -0.11)">
     <use xlink:href="#DejaVuSans-48"/>
     <use xlink:href="#DejaVuSans-51" transform="translate(61.53125 0)"/>
     <use xlink:href="#DejaVuSans-47" transform="translate(124.90625 0)"/>
     <use xlink:href="#DejaVuSans-3" transform="translate(188.390625 0)"/>
     <use xlink:href="#DejaVuSans-52" transform="translate(220.171875 0)"/>
     <use xlink:href="#DejaVuSans-49" transform="translate(281.359375 0)"/>
     <use xlink:href="#DejaVuSans-3" transform="translate(316.5625 0)"/>
     <use xlink:href="#DejaVuSans-48" transform="translate(348.34375 0)"/>
     <use xlink:href="#DejaVuSans-53" transform="translate(409.875 0)"/>
     <use xlink:href="#DejaVuSans-52" transform="translate(473.359375 0)"/>
     <use xlink:href="#DejaVuSans-46" transform="translate(534.546875 0)"/>
     <use xlink:href="#DejaVuSans-4b" transform="translate(589.53125 0)"/>
     <use xlink:href="#DejaVuSans-3" transform="translate(652.90625 0)"/>
     <use xlink:href="#DejaVuSans-15" transform="translate(684.6875 0)"/>
    </g>
   </g>
   <g id="legend_1">
    <g id="patch_7">
     <path d="M 308.30375 161.980234 
L 544.4 161.980234 
Q 546.8 161.980234 546.8 159.580234 
L 546.8 124.778359 
Q 546.8 122.378359 544.4 122.378359 
L 308.30375 122.378359 
Q 305.90375 122.378359 305.90375 124.778359 
L 305.90375 159.580234 
Q 305.90375 161.980234 308.30375 161.980234 
z
" style="fill: #ffffff; opacity: 0.95; stroke: #cccccc; stroke-linejoin: miter"/>
    </g>
    <g id="line2d_30">
     <path d="M 310.70375 132.096484 
L 322.70375 132.096484 
L 334.70375 132.096484 
" style="fill: none; stroke: #1185e1; stroke-width: 2.6; stroke-linecap: square"/>
    </g>
    <g id="text_18">
     <!-- Training loss (lower is better) -->
     <g style="fill: #1a1a1a" transform="translate(344.30375 136.296484) scale(0.12 -0.12)">
      <defs>
       <path id="DejaVuSans-4f" d="M 603 4863 
L 1178 4863 
L 1178 0 
L 603 0 
L 603 4863 
z
" transform="scale(0.015625)"/>
       <path id="DejaVuSans-b" d="M 1984 4856 
Q 1566 4138 1362 3434 
Q 1159 2731 1159 2009 
Q 1159 1288 1364 580 
Q 1569 -128 1984 -844 
L 1484 -844 
Q 1016 -109 783 600 
Q 550 1309 550 2009 
Q 550 2706 781 3412 
Q 1013 4119 1484 4856 
L 1984 4856 
z
" transform="scale(0.015625)"/>
       <path id="DejaVuSans-5a" d="M 269 3500 
L 844 3500 
L 1563 769 
L 2278 3500 
L 2956 3500 
L 3675 769 
L 4391 3500 
L 4966 3500 
L 4050 0 
L 3372 0 
L 2619 2869 
L 1863 0 
L 1184 0 
L 269 3500 
z
" transform="scale(0.015625)"/>
       <path id="DejaVuSans-45" d="M 3116 1747 
Q 3116 2381 2855 2742 
Q 2594 3103 2138 3103 
Q 1681 3103 1420 2742 
Q 1159 2381 1159 1747 
Q 1159 1113 1420 752 
Q 1681 391 2138 391 
Q 2594 391 2855 752 
Q 3116 1113 3116 1747 
z
M 1159 2969 
Q 1341 3281 1617 3432 
Q 1894 3584 2278 3584 
Q 2916 3584 3314 3078 
Q 3713 2572 3713 1747 
Q 3713 922 3314 415 
Q 2916 -91 2278 -91 
Q 1894 -91 1617 61 
Q 1341 213 1159 525 
L 1159 0 
L 581 0 
L 581 4863 
L 1159 4863 
L 1159 2969 
z
" transform="scale(0.015625)"/>
       <path id="DejaVuSans-c" d="M 513 4856 
L 1013 4856 
Q 1481 4119 1714 3412 
Q 1947 2706 1947 2009 
Q 1947 1309 1714 600 
Q 1481 -109 1013 -844 
L 513 -844 
Q 928 -128 1133 580 
Q 1338 1288 1338 2009 
Q 1338 2731 1133 3434 
Q 928 4138 513 4856 
z
" transform="scale(0.015625)"/>
      </defs>
      <use xlink:href="#DejaVuSans-37"/>
      <use xlink:href="#DejaVuSans-55" transform="translate(46.375 0)"/>
      <use xlink:href="#DejaVuSans-44" transform="translate(87.484375 0)"/>
      <use xlink:href="#DejaVuSans-4c" transform="translate(148.765625 0)"/>
      <use xlink:href="#DejaVuSans-51" transform="translate(176.546875 0)"/>
      <use xlink:href="#DejaVuSans-4c" transform="translate(239.921875 0)"/>
      <use xlink:href="#DejaVuSans-51" transform="translate(267.703125 0)"/>
      <use xlink:href="#DejaVuSans-4a" transform="translate(331.078125 0)"/>
      <use xlink:href="#DejaVuSans-3" transform="translate(394.5625 0)"/>
      <use xlink:href="#DejaVuSans-4f" transform="translate(426.34375 0)"/>
      <use xlink:href="#DejaVuSans-52" transform="translate(454.125 0)"/>
      <use xlink:href="#DejaVuSans-56" transform="translate(515.3125 0)"/>
      <use xlink:href="#DejaVuSans-56" transform="translate(567.40625 0)"/>
      <use xlink:href="#DejaVuSans-3" transform="translate(619.5 0)"/>
      <use xlink:href="#DejaVuSans-b" transform="translate(651.28125 0)"/>
      <use xlink:href="#DejaVuSans-4f" transform="translate(690.296875 0)"/>
      <use xlink:href="#DejaVuSans-52" transform="translate(718.078125 0)"/>
      <use xlink:href="#DejaVuSans-5a" transform="translate(779.265625 0)"/>
      <use xlink:href="#DejaVuSans-48" transform="translate(861.046875 0)"/>
      <use xlink:href="#DejaVuSans-55" transform="translate(922.578125 0)"/>
      <use xlink:href="#DejaVuSans-3" transform="translate(963.6875 0)"/>
      <use xlink:href="#DejaVuSans-4c" transform="translate(995.46875 0)"/>
      <use xlink:href="#DejaVuSans-56" transform="translate(1023.25 0)"/>
      <use xlink:href="#DejaVuSans-3" transform="translate(1075.34375 0)"/>
      <use xlink:href="#DejaVuSans-45" transform="translate(1107.125 0)"/>
      <use xlink:href="#DejaVuSans-48" transform="translate(1170.609375 0)"/>
      <use xlink:href="#DejaVuSans-57" transform="translate(1232.140625 0)"/>
      <use xlink:href="#DejaVuSans-57" transform="translate(1271.34375 0)"/>
      <use xlink:href="#DejaVuSans-48" transform="translate(1310.546875 0)"/>
      <use xlink:href="#DejaVuSans-55" transform="translate(1372.078125 0)"/>
      <use xlink:href="#DejaVuSans-c" transform="translate(1413.1875 0)"/>
     </g>
    </g>
    <g id="line2d_31">
     <path d="M 310.70375 150.097422 
L 322.70375 150.097422 
L 334.70375 150.097422 
" style="fill: none; stroke-dasharray: 9.62,4.16; stroke-dashoffset: 0; stroke: #009d25; stroke-width: 2.6"/>
    </g>
    <g id="text_19">
     <!-- Token accuracy (higher is better) -->
     <g style="fill: #1a1a1a" transform="translate(344.30375 154.297422) scale(0.12 -0.12)">
      <defs>
       <path id="DejaVuSans-4e" d="M 581 4863 
L 1159 4863 
L 1159 1991 
L 2875 3500 
L 3609 3500 
L 1753 1863 
L 3688 0 
L 2938 0 
L 1159 1709 
L 1159 0 
L 581 0 
L 581 4863 
z
" transform="scale(0.015625)"/>
       <path id="DejaVuSans-58" d="M 544 1381 
L 544 3500 
L 1119 3500 
L 1119 1403 
Q 1119 906 1312 657 
Q 1506 409 1894 409 
Q 2359 409 2629 706 
Q 2900 1003 2900 1516 
L 2900 3500 
L 3475 3500 
L 3475 0 
L 2900 0 
L 2900 538 
Q 2691 219 2414 64 
Q 2138 -91 1772 -91 
Q 1169 -91 856 284 
Q 544 659 544 1381 
z
M 1991 3584 
L 1991 3584 
z
" transform="scale(0.015625)"/>
       <path id="DejaVuSans-5c" d="M 2059 -325 
Q 1816 -950 1584 -1140 
Q 1353 -1331 966 -1331 
L 506 -1331 
L 506 -850 
L 844 -850 
Q 1081 -850 1212 -737 
Q 1344 -625 1503 -206 
L 1606 56 
L 191 3500 
L 800 3500 
L 1894 763 
L 2988 3500 
L 3597 3500 
L 2059 -325 
z
" transform="scale(0.015625)"/>
      </defs>
      <use xlink:href="#DejaVuSans-37"/>
      <use xlink:href="#DejaVuSans-52" transform="translate(44.09375 0)"/>
      <use xlink:href="#DejaVuSans-4e" transform="translate(105.28125 0)"/>
      <use xlink:href="#DejaVuSans-48" transform="translate(159.625 0)"/>
      <use xlink:href="#DejaVuSans-51" transform="translate(221.15625 0)"/>
      <use xlink:href="#DejaVuSans-3" transform="translate(284.53125 0)"/>
      <use xlink:href="#DejaVuSans-44" transform="translate(316.3125 0)"/>
      <use xlink:href="#DejaVuSans-46" transform="translate(377.59375 0)"/>
      <use xlink:href="#DejaVuSans-46" transform="translate(432.578125 0)"/>
      <use xlink:href="#DejaVuSans-58" transform="translate(487.5625 0)"/>
      <use xlink:href="#DejaVuSans-55" transform="translate(550.9375 0)"/>
      <use xlink:href="#DejaVuSans-44" transform="translate(592.046875 0)"/>
      <use xlink:href="#DejaVuSans-46" transform="translate(653.328125 0)"/>
      <use xlink:href="#DejaVuSans-5c" transform="translate(708.3125 0)"/>
      <use xlink:href="#DejaVuSans-3" transform="translate(767.5 0)"/>
      <use xlink:href="#DejaVuSans-b" transform="translate(799.28125 0)"/>
      <use xlink:href="#DejaVuSans-4b" transform="translate(838.296875 0)"/>
      <use xlink:href="#DejaVuSans-4c" transform="translate(901.671875 0)"/>
      <use xlink:href="#DejaVuSans-4a" transform="translate(929.453125 0)"/>
      <use xlink:href="#DejaVuSans-4b" transform="translate(992.9375 0)"/>
      <use xlink:href="#DejaVuSans-48" transform="translate(1056.3125 0)"/>
      <use xlink:href="#DejaVuSans-55" transform="translate(1117.84375 0)"/>
      <use xlink:href="#DejaVuSans-3" transform="translate(1158.953125 0)"/>
      <use xlink:href="#DejaVuSans-4c" transform="translate(1190.734375 0)"/>
      <use xlink:href="#DejaVuSans-56" transform="translate(1218.515625 0)"/>
      <use xlink:href="#DejaVuSans-3" transform="translate(1270.609375 0)"/>
      <use xlink:href="#DejaVuSans-45" transform="translate(1302.390625 0)"/>
      <use xlink:href="#DejaVuSans-48" transform="translate(1365.875 0)"/>
      <use xlink:href="#DejaVuSans-57" transform="translate(1427.40625 0)"/>
      <use xlink:href="#DejaVuSans-57" transform="translate(1466.609375 0)"/>
      <use xlink:href="#DejaVuSans-48" transform="translate(1505.8125 0)"/>
      <use xlink:href="#DejaVuSans-55" transform="translate(1567.34375 0)"/>
      <use xlink:href="#DejaVuSans-c" transform="translate(1608.453125 0)"/>
     </g>
    </g>
   </g>
  </g>
  <g id="axes_2">
   <g id="matplotlib.axis_3">
    <g id="ytick_6">
     <g id="line2d_32">
      <defs>
       <path id="mcbf576539f" d="M 0 0 
L 3.5 0 
" style="stroke: #1a1a1a; stroke-width: 0.8"/>
      </defs>
      <g>
       <use xlink:href="#mcbf576539f" x="552.8" y="265.76" style="fill: #1a1a1a; stroke: #1a1a1a; stroke-width: 0.8"/>
      </g>
     </g>
     <g id="text_20">
      <!-- 0.60 -->
      <g style="fill: #009d25" transform="translate(559.8 270.318594) scale(0.12 -0.12)">
       <use xlink:href="#DejaVuSans-13"/>
       <use xlink:href="#DejaVuSans-11" transform="translate(63.625 0)"/>
       <use xlink:href="#DejaVuSans-19" transform="translate(95.40625 0)"/>
       <use xlink:href="#DejaVuSans-13" transform="translate(159.03125 0)"/>
      </g>
     </g>
    </g>
    <g id="ytick_7">
     <g id="line2d_33">
      <g>
       <use xlink:href="#mcbf576539f" x="552.8" y="234.864824" style="fill: #1a1a1a; stroke: #1a1a1a; stroke-width: 0.8"/>
      </g>
     </g>
     <g id="text_21">
      <!-- 0.65 -->
      <g style="fill: #009d25" transform="translate(559.8 239.423418) scale(0.12 -0.12)">
       <use xlink:href="#DejaVuSans-13"/>
       <use xlink:href="#DejaVuSans-11" transform="translate(63.625 0)"/>
       <use xlink:href="#DejaVuSans-19" transform="translate(95.40625 0)"/>
       <use xlink:href="#DejaVuSans-18" transform="translate(159.03125 0)"/>
      </g>
     </g>
    </g>
    <g id="ytick_8">
     <g id="line2d_34">
      <g>
       <use xlink:href="#mcbf576539f" x="552.8" y="203.969648" style="fill: #1a1a1a; stroke: #1a1a1a; stroke-width: 0.8"/>
      </g>
     </g>
     <g id="text_22">
      <!-- 0.70 -->
      <g style="fill: #009d25" transform="translate(559.8 208.528242) scale(0.12 -0.12)">
       <defs>
        <path id="DejaVuSans-1a" d="M 525 4666 
L 3525 4666 
L 3525 4397 
L 1831 0 
L 1172 0 
L 2766 4134 
L 525 4134 
L 525 4666 
z
" transform="scale(0.015625)"/>
       </defs>
       <use xlink:href="#DejaVuSans-13"/>
       <use xlink:href="#DejaVuSans-11" transform="translate(63.625 0)"/>
       <use xlink:href="#DejaVuSans-1a" transform="translate(95.40625 0)"/>
       <use xlink:href="#DejaVuSans-13" transform="translate(159.03125 0)"/>
      </g>
     </g>
    </g>
    <g id="ytick_9">
     <g id="line2d_35">
      <g>
       <use xlink:href="#mcbf576539f" x="552.8" y="173.074473" style="fill: #1a1a1a; stroke: #1a1a1a; stroke-width: 0.8"/>
      </g>
     </g>
     <g id="text_23">
      <!-- 0.75 -->
      <g style="fill: #009d25" transform="translate(559.8 177.633066) scale(0.12 -0.12)">
       <use xlink:href="#DejaVuSans-13"/>
       <use xlink:href="#DejaVuSans-11" transform="translate(63.625 0)"/>
       <use xlink:href="#DejaVuSans-1a" transform="translate(95.40625 0)"/>
       <use xlink:href="#DejaVuSans-18" transform="translate(159.03125 0)"/>
      </g>
     </g>
    </g>
    <g id="ytick_10">
     <g id="line2d_36">
      <g>
       <use xlink:href="#mcbf576539f" x="552.8" y="142.179297" style="fill: #1a1a1a; stroke: #1a1a1a; stroke-width: 0.8"/>
      </g>
     </g>
     <g id="text_24">
      <!-- 0.80 -->
      <g style="fill: #009d25" transform="translate(559.8 146.737891) scale(0.12 -0.12)">
       <use xlink:href="#DejaVuSans-13"/>
       <use xlink:href="#DejaVuSans-11" transform="translate(63.625 0)"/>
       <use xlink:href="#DejaVuSans-1b" transform="translate(95.40625 0)"/>
       <use xlink:href="#DejaVuSans-13" transform="translate(159.03125 0)"/>
      </g>
     </g>
    </g>
    <g id="ytick_11">
     <g id="line2d_37">
      <g>
       <use xlink:href="#mcbf576539f" x="552.8" y="111.284121" style="fill: #1a1a1a; stroke: #1a1a1a; stroke-width: 0.8"/>
      </g>
     </g>
     <g id="text_25">
      <!-- 0.85 -->
      <g style="fill: #009d25" transform="translate(559.8 115.842715) scale(0.12 -0.12)">
       <use xlink:href="#DejaVuSans-13"/>
       <use xlink:href="#DejaVuSans-11" transform="translate(63.625 0)"/>
       <use xlink:href="#DejaVuSans-1b" transform="translate(95.40625 0)"/>
       <use xlink:href="#DejaVuSans-18" transform="translate(159.03125 0)"/>
      </g>
     </g>
    </g>
    <g id="ytick_12">
     <g id="line2d_38">
      <g>
       <use xlink:href="#mcbf576539f" x="552.8" y="80.388945" style="fill: #1a1a1a; stroke: #1a1a1a; stroke-width: 0.8"/>
      </g>
     </g>
     <g id="text_26">
      <!-- 0.90 -->
      <g style="fill: #009d25" transform="translate(559.8 84.947539) scale(0.12 -0.12)">
       <defs>
        <path id="DejaVuSans-1c" d="M 703 97 
L 703 672 
Q 941 559 1184 500 
Q 1428 441 1663 441 
Q 2288 441 2617 861 
Q 2947 1281 2994 2138 
Q 2813 1869 2534 1725 
Q 2256 1581 1919 1581 
Q 1219 1581 811 2004 
Q 403 2428 403 3163 
Q 403 3881 828 4315 
Q 1253 4750 1959 4750 
Q 2769 4750 3195 4129 
Q 3622 3509 3622 2328 
Q 3622 1225 3098 567 
Q 2575 -91 1691 -91 
Q 1453 -91 1209 -44 
Q 966 3 703 97 
z
M 1959 2075 
Q 2384 2075 2632 2365 
Q 2881 2656 2881 3163 
Q 2881 3666 2632 3958 
Q 2384 4250 1959 4250 
Q 1534 4250 1286 3958 
Q 1038 3666 1038 3163 
Q 1038 2656 1286 2365 
Q 1534 2075 1959 2075 
z
" transform="scale(0.015625)"/>
       </defs>
       <use xlink:href="#DejaVuSans-13"/>
       <use xlink:href="#DejaVuSans-11" transform="translate(63.625 0)"/>
       <use xlink:href="#DejaVuSans-1c" transform="translate(95.40625 0)"/>
       <use xlink:href="#DejaVuSans-13" transform="translate(159.03125 0)"/>
      </g>
     </g>
    </g>
    <g id="ytick_13">
     <g id="line2d_39">
      <g>
       <use xlink:href="#mcbf576539f" x="552.8" y="49.49377" style="fill: #1a1a1a; stroke: #1a1a1a; stroke-width: 0.8"/>
      </g>
     </g>
     <g id="text_27">
      <!-- 0.95 -->
      <g style="fill: #009d25" transform="translate(559.8 54.052363) scale(0.12 -0.12)">
       <use xlink:href="#DejaVuSans-13"/>
       <use xlink:href="#DejaVuSans-11" transform="translate(63.625 0)"/>
       <use xlink:href="#DejaVuSans-1c" transform="translate(95.40625 0)"/>
       <use xlink:href="#DejaVuSans-18" transform="translate(159.03125 0)"/>
      </g>
     </g>
    </g>
    <g id="ytick_14">
     <g id="line2d_40">
      <g>
       <use xlink:href="#mcbf576539f" x="552.8" y="18.598594" style="fill: #1a1a1a; stroke: #1a1a1a; stroke-width: 0.8"/>
      </g>
     </g>
     <g id="text_28">
      <!-- 1.00 -->
      <g style="fill: #009d25" transform="translate(559.8 23.157188) scale(0.12 -0.12)">
       <use xlink:href="#DejaVuSans-14"/>
       <use xlink:href="#DejaVuSans-11" transform="translate(63.625 0)"/>
       <use xlink:href="#DejaVuSans-13" transform="translate(95.40625 0)"/>
       <use xlink:href="#DejaVuSans-13" transform="translate(159.03125 0)"/>
      </g>
     </g>
    </g>
    <g id="text_29">
     <!-- Token accuracy -->
     <g style="fill: #009d25" transform="translate(601.156562 195.904297) rotate(-90) scale(0.14 -0.14)">
      <use xlink:href="#DejaVuSans-37"/>
      <use xlink:href="#DejaVuSans-52" transform="translate(44.09375 0)"/>
      <use xlink:href="#DejaVuSans-4e" transform="translate(105.28125 0)"/>
      <use xlink:href="#DejaVuSans-48" transform="translate(159.625 0)"/>
      <use xlink:href="#DejaVuSans-51" transform="translate(221.15625 0)"/>
      <use xlink:href="#DejaVuSans-3" transform="translate(284.53125 0)"/>
      <use xlink:href="#DejaVuSans-44" transform="translate(316.3125 0)"/>
      <use xlink:href="#DejaVuSans-46" transform="translate(377.59375 0)"/>
      <use xlink:href="#DejaVuSans-46" transform="translate(432.578125 0)"/>
      <use xlink:href="#DejaVuSans-58" transform="translate(487.5625 0)"/>
      <use xlink:href="#DejaVuSans-55" transform="translate(550.9375 0)"/>
      <use xlink:href="#DejaVuSans-44" transform="translate(592.046875 0)"/>
      <use xlink:href="#DejaVuSans-46" transform="translate(653.328125 0)"/>
      <use xlink:href="#DejaVuSans-5c" transform="translate(708.3125 0)"/>
     </g>
    </g>
   </g>
   <g id="line2d_41">
    <path d="M 62.000798 211.896797 
L 65.521595 176.891897 
L 69.042393 124.307877 
L 72.563191 106.353568 
L 79.604786 99.604325 
L 83.125584 94.510205 
L 86.646382 97.117693 
L 90.167179 93.180143 
L 93.687977 93.268661 
L 97.208775 93.519472 
L 100.729573 93.266559 
L 104.25037 92.381849 
L 107.771168 92.304676 
L 111.291966 90.457775 
L 114.812764 90.654245 
L 118.333561 88.087182 
L 121.854359 88.988791 
L 125.375157 87.313529 
L 128.895954 86.986184 
L 132.416752 86.122208 
L 135.93755 88.201484 
L 139.458348 88.767831 
L 142.979145 88.639857 
L 146.499943 90.471462 
L 150.020741 86.475009 
L 153.541538 88.380966 
L 157.062336 84.220111 
L 160.583134 83.121955 
L 164.103932 85.985585 
L 167.624729 86.866444 
L 171.145527 87.290518 
L 174.666325 84.031861 
L 178.187123 86.85067 
L 181.70792 84.480212 
L 185.228718 84.493261 
L 188.749516 84.172689 
L 192.270313 86.670291 
L 195.791111 88.015816 
L 199.311909 87.976995 
L 202.832707 84.780786 
L 206.353504 85.689915 
L 209.874302 87.871677 
L 213.3951 84.897843 
L 216.915897 83.203775 
L 220.436695 82.856258 
L 223.957493 80.422019 
L 227.478291 82.773243 
L 230.999088 79.774061 
L 234.519886 82.757337 
L 238.040684 82.491852 
L 241.561481 78.915294 
L 245.082279 77.316306 
L 248.603077 81.316511 
L 252.123875 73.359273 
L 255.644672 81.569953 
L 259.16547 80.206846 
L 262.686268 82.150784 
L 266.207066 83.610197 
L 269.727863 74.556656 
L 273.248661 78.151689 
L 276.769459 80.473823 
L 280.290256 77.154105 
L 283.811054 80.183289 
L 287.331852 75.539066 
L 290.85265 79.692375 
L 294.373447 80.359364 
L 297.894245 75.372916 
L 301.415043 80.061668 
L 304.93584 80.921553 
L 308.456638 79.943966 
L 311.977436 75.170527 
L 315.498234 79.478687 
L 319.019031 78.237195 
L 322.539829 77.366079 
L 326.060627 77.706616 
L 329.581425 77.523375 
L 333.102222 75.533228 
L 336.62302 78.352669 
L 340.143818 80.032091 
L 343.664615 79.266607 
L 347.185413 76.915793 
L 350.706211 75.149444 
L 354.227009 79.18392 
L 357.747806 73.582167 
L 361.268604 76.856717 
L 364.789402 76.889253 
L 368.310199 80.332872 
L 371.830997 81.16639 
L 375.351795 77.280142 
L 378.872593 77.65068 
L 382.39339 76.379243 
L 385.914188 77.72293 
L 389.434986 73.46429 
L 392.955783 72.267347 
L 396.476581 73.713038 
L 399.997379 72.413761 
L 403.518177 68.805464 
L 407.038974 73.26494 
L 410.559772 67.947231 
L 414.08057 67.466606 
L 417.601368 75.083118 
L 421.122165 77.458333 
L 424.642963 73.171312 
L 428.163761 72.9963 
L 431.684558 70.89972 
L 435.205356 69.221019 
L 438.726154 70.853679 
L 442.246952 73.00381 
L 445.767749 72.72151 
L 449.288547 71.819099 
L 452.809345 72.752611 
L 456.330142 68.560322 
L 459.85094 71.524805 
L 463.371738 70.746553 
L 466.892536 69.684919 
L 470.413333 68.30387 
L 473.934131 70.555142 
L 477.454929 71.863378 
L 480.975726 69.913916 
L 484.496524 69.72953 
L 488.017322 70.083161 
L 491.53812 70.713678 
L 495.058917 70.453236 
L 498.579715 67.132292 
L 502.100513 71.91155 
L 505.621311 72.947164 
L 509.142108 68.608861 
L 512.662906 70.399063 
L 516.183704 71.341176 
L 519.704501 68.527591 
L 523.225299 69.745384 
L 526.746097 70.526444 
L 530.266895 76.057665 
L 533.787692 68.878142 
L 537.30849 70.861209 
L 540.829288 70.093756 
L 544.350085 68.840261 
L 547.870883 68.932873 
L 551.391681 66.356541 
L 551.391681 66.356541 
" clip-path="url(#p86c64433be)" style="fill: none; stroke-dasharray: 9.62,4.16; stroke-dashoffset: 0; stroke: #009d25; stroke-width: 2.6"/>
   </g>
   <g id="patch_8">
    <path d="M 58.48 265.76 
L 58.48 18.598594 
" style="fill: none; stroke: #c8c8c8; stroke-width: 0.8; stroke-linejoin: miter; stroke-linecap: square"/>
   </g>
   <g id="patch_9">
    <path d="M 552.8 265.76 
L 552.8 18.598594 
" style="fill: none; stroke: #c8c8c8; stroke-width: 0.8; stroke-linejoin: miter; stroke-linecap: square"/>
   </g>
   <g id="patch_10">
    <path d="M 58.48 265.76 
L 552.8 265.76 
" style="fill: none; stroke: #c8c8c8; stroke-width: 0.8; stroke-linejoin: miter; stroke-linecap: square"/>
   </g>
   <g id="patch_11">
    <path d="M 58.48 18.598594 
L 552.8 18.598594 
" style="fill: none; stroke: #c8c8c8; stroke-width: 0.8; stroke-linejoin: miter; stroke-linecap: square"/>
   </g>
  </g>
 </g>
 <defs>
  <clipPath id="p86c64433be">
   <rect x="58.48" y="18.598594" width="494.32" height="247.161406"/>
  </clipPath>
 </defs>
</svg>
